<mxfile host="app.diagrams.net" agent="Mozilla/5.0 (Macintosh; Intel Mac OS X 10_15_7) AppleWebKit/537.36 (KHTML, like Gecko) Chrome/132.0.0.0 Safari/537.36" version="26.1.1">
  <diagram name="Page-1" id="PhErTqhbxqhCGvyCR48b">
    <mxGraphModel dx="1026" dy="650" grid="1" gridSize="10" guides="1" tooltips="1" connect="1" arrows="1" fold="1" page="1" pageScale="1" pageWidth="1100" pageHeight="850" math="0" shadow="0">
      <root>
        <mxCell id="0" />
        <mxCell id="1" parent="0" />
        <object label="Main Start" odk_type="start" form_id="questionaire" name="s_" id="GtG8bi0Q6Z_r1jVJq6Bn-1">
          <mxCell style="ellipse;whiteSpace=wrap;html=1;aspect=fixed;fontColor=default;" parent="1" vertex="1">
            <mxGeometry x="530" y="100" width="70" height="70" as="geometry" />
          </mxCell>
        </object>
      </root>
    </mxGraphModel>
  </diagram>
</mxfile>
